<svg width="362" height="310" viewBox="0 0 362 310" fill="none" xmlns="http://www.w3.org/2000/svg">
<mask id="mask0_606_12" style="mask-type:alpha" maskUnits="userSpaceOnUse" x="0" y="0" width="362" height="310">
<rect width="362" height="310" rx="16" fill="white"/>
<rect x="0.5" y="0.5" width="361" height="309" rx="15.5" stroke="#05020A" stroke-opacity="0.2"/>
</mask>
<g mask="url(#mask0_606_12)">
<path opacity="0.05" fill-rule="evenodd" clip-rule="evenodd" d="M181.049 206.51C81.0777 206.51 0.0253458 125.482 0 25.5119L6.98352e-05 -201.001L362 -201.001V25.512C362.027 125.446 281.033 206.483 181.097 206.51L181.049 206.51Z" fill="#00843D"/>
</g>
<path d="M179.076 44.0528C203.071 44.0528 227.065 44.082 251.06 44.0059C253.28 44.0001 254.012 44.4686 254 46.8464C253.9 69.5525 253.9 92.2586 254 114.965C254.012 117.354 253.268 117.805 251.054 117.799C203.065 117.741 155.076 117.735 107.092 117.805C104.721 117.805 103.988 117.307 104 114.812C104.106 92.2117 104.106 69.5993 104 46.9928C103.988 44.4862 104.726 43.9942 107.092 44.0001C131.087 44.0879 155.082 44.0528 179.076 44.0528ZM178.988 52.8201C161.729 52.8201 144.469 52.8318 127.21 52.8025C125.646 52.8025 124.633 52.7908 124.27 54.8992C123.555 59.0398 120.85 61.5699 116.592 62.1204C115.421 62.2727 115.169 62.7764 115.169 63.8013C115.186 75.6902 115.192 87.5733 115.163 99.4622C115.163 100.669 115.555 101.184 116.797 101.313C120.926 101.74 123.257 104.288 124.159 108.136C124.551 109.811 125.301 110.192 126.923 110.192C161.635 110.145 196.353 110.145 231.065 110.192C232.852 110.192 233.625 109.682 233.994 107.907C234.767 104.212 237.068 101.852 240.893 101.389C242.603 101.184 242.849 100.376 242.843 98.8941C242.796 87.3976 242.79 75.9011 242.849 64.4045C242.855 62.8701 242.486 62.2668 240.863 61.9799C237.18 61.3356 234.62 59.1043 233.964 55.3736C233.566 53.0895 232.483 52.7616 230.468 52.7674C213.308 52.8377 196.142 52.8084 178.982 52.8084L178.988 52.8201Z" fill="#00BDD3"/>
<path d="M178.992 52.8282C196.151 52.8282 213.317 52.8575 230.477 52.7872C232.492 52.7813 233.569 53.1034 233.973 55.3934C234.629 59.124 237.189 61.3554 240.873 61.9996C242.495 62.2808 242.864 62.8899 242.858 64.4243C242.799 75.9208 242.805 87.4174 242.852 98.9139C242.858 100.396 242.612 101.198 240.902 101.409C237.072 101.872 234.77 104.238 234.003 107.927C233.634 109.702 232.861 110.211 231.074 110.211C196.362 110.159 161.644 110.159 126.932 110.211C125.31 110.211 124.56 109.831 124.168 108.156C123.266 104.314 120.935 101.76 116.806 101.333C115.564 101.204 115.166 100.683 115.172 99.482C115.201 87.5931 115.195 75.71 115.178 63.8211C115.178 62.7961 115.43 62.2925 116.601 62.1402C120.853 61.5838 123.564 59.0596 124.279 54.919C124.642 52.8106 125.649 52.8165 127.219 52.8223C144.478 52.8516 161.738 52.8399 178.997 52.8399L178.992 52.8282ZM178.874 108.987C195.747 108.987 212.62 108.964 229.493 109.017C231.338 109.017 232.416 108.776 233.06 106.662C234.003 103.564 236.193 101.198 239.531 100.519C241.441 100.132 241.692 99.1716 241.681 97.5083C241.622 87.0835 241.599 76.6529 241.698 66.2281C241.716 64.2896 241.277 63.3408 239.274 62.761C235.889 61.783 233.546 59.4754 232.837 55.9029C232.515 54.2982 231.666 53.9819 230.19 53.9819C196.058 54.0171 161.919 54.0112 127.787 53.9878C126.464 53.9878 125.72 54.2162 125.357 55.7272C124.437 59.5282 122.001 62.0406 118.165 62.9953C116.619 63.3818 116.337 64.2369 116.349 65.6952C116.414 76.4128 116.408 87.1304 116.349 97.8539C116.343 99.3414 116.66 100.074 118.276 100.425C121.538 101.145 123.951 103.23 124.882 106.41C125.55 108.706 126.745 109.04 128.859 109.028C145.539 108.946 162.212 108.981 178.892 108.981L178.874 108.987Z" fill="#482880"/>
<path d="M178.871 108.98C162.191 108.98 145.518 108.945 128.838 109.027C126.724 109.039 125.535 108.705 124.861 106.409C123.936 103.223 121.523 101.138 118.255 100.423C116.639 100.066 116.322 99.3341 116.328 97.8524C116.381 87.1348 116.387 76.4172 116.328 65.6937C116.322 64.2354 116.598 63.3803 118.144 62.9938C121.98 62.0392 124.422 59.5208 125.336 55.7257C125.699 54.2206 126.448 53.9863 127.766 53.9863C161.899 54.0098 196.037 54.0098 230.169 53.9805C231.651 53.9805 232.5 54.2967 232.816 55.9014C233.531 59.474 235.868 61.7815 239.253 62.7595C241.256 63.3393 241.695 64.2881 241.677 66.2267C241.578 76.6514 241.601 87.0821 241.66 97.5069C241.672 99.1701 241.414 100.131 239.51 100.517C236.178 101.197 233.982 103.563 233.039 106.661C232.395 108.775 231.323 109.021 229.472 109.015C212.599 108.962 195.726 108.986 178.853 108.986L178.871 108.98ZM201.255 81.694C201.308 69.4302 191.311 59.2924 179.129 59.2573C167 59.228 156.838 69.1667 156.745 81.1435C156.651 93.4424 166.59 103.656 178.725 103.727C191.024 103.797 201.202 93.8465 201.255 81.694ZM137.916 88.5111C141.441 88.5872 144.862 85.3427 145.043 81.7467C145.231 78.1683 141.793 74.5548 138.127 74.4786C134.601 74.4025 131.181 77.6471 130.999 81.243C130.812 84.8214 134.249 88.435 137.916 88.5111ZM227.012 81.5183C227.03 77.975 223.75 74.6016 220.16 74.4728C216.547 74.3439 212.986 77.8052 212.962 81.4656C212.945 85.1201 216.471 88.5989 220.107 88.5111C223.662 88.4232 226.995 85.0557 227.012 81.5183Z" fill="#00BDD3"/>
<path d="M201.269 81.6917C201.216 93.8441 191.037 103.795 178.738 103.724C166.603 103.654 156.671 93.4459 156.758 81.1411C156.846 69.1643 167.013 59.2257 179.142 59.2549C191.318 59.2842 201.321 69.4279 201.269 81.6917ZM179.242 68.6314C176.22 68.6314 173.198 68.6665 170.182 68.6138C168.928 68.5904 168.466 69.0472 168.466 70.3064C168.466 71.6007 168.764 72.3211 170.24 72.2742C172.677 72.2039 175.113 72.2215 177.549 72.2742C178.703 72.2976 180.167 71.7705 180.226 73.9082C180.279 76.0224 178.896 75.6301 177.684 75.6418C175.248 75.6593 172.811 75.6593 170.375 75.6418C169.327 75.6359 168.46 75.6652 168.466 77.1235C168.472 78.4998 169.21 78.7106 170.322 78.6989C172.565 78.6696 174.808 78.6462 177.046 78.7165C177.942 78.7458 179.301 78.2187 179.57 79.4661C179.869 80.8717 178.592 81.4515 177.444 81.8146C176.806 82.0138 176.103 82.0489 175.429 82.0782C171.369 82.2578 169.401 84.3974 169.526 88.497C169.655 92.8544 171.511 95.3493 175.423 96.4328C180.706 97.8911 185.368 95.2732 186.428 90.3243C186.692 89.0827 186.528 88.497 185.122 88.5088C183.219 88.5263 181.438 88.1574 180.665 90.8397C180.056 92.9656 177.046 93.1882 175.634 91.4605C174.604 90.1896 174.463 88.5146 174.609 87.0505C174.756 85.5395 176.524 85.9963 177.514 85.8147C181.069 85.1763 184.103 84.0694 185.081 80.0928C185.45 78.5994 186.674 78.6286 187.875 78.6872C188.87 78.7399 189.526 78.4998 189.567 77.2699C189.614 75.9287 188.999 75.6008 187.81 75.6301C186.709 75.6535 185.432 76.0049 185.415 74.0546C185.403 72.2976 186.369 72.1395 187.652 72.2684C189.286 72.4323 189.573 71.5831 189.579 70.1717C189.579 68.4791 188.513 68.6255 187.429 68.6314C184.7 68.6314 181.971 68.6314 179.242 68.6314Z" fill="#A7F2EF"/>
<path d="M137.908 88.5084C134.242 88.4264 130.804 84.8187 130.992 81.2403C131.179 77.6444 134.599 74.3998 138.119 74.4759C141.785 74.5579 145.223 78.1656 145.036 81.744C144.848 85.3399 141.428 88.5845 137.908 88.5084Z" fill="#A8F2F0"/>
<path d="M227.003 81.5187C226.986 85.0561 223.659 88.4237 220.098 88.5115C216.461 88.5994 212.936 85.1205 212.953 81.466C212.971 77.8115 216.537 74.3444 220.151 74.4732C223.735 74.6021 227.021 77.9755 227.003 81.5187Z" fill="#A8F2F0"/>
<path d="M179.237 68.6317C181.966 68.6317 184.696 68.6317 187.425 68.6317C188.508 68.6317 189.58 68.4853 189.574 70.172C189.574 71.5893 189.281 72.4327 187.647 72.2687C186.371 72.1398 185.398 72.2979 185.41 74.0549C185.428 75.9993 186.704 75.6538 187.805 75.6304C188.994 75.6011 189.603 75.9232 189.562 77.2702C189.521 78.5001 188.865 78.7402 187.87 78.6875C186.669 78.6231 185.439 78.5997 185.076 80.0931C184.098 84.0698 181.064 85.1767 177.509 85.815C176.52 85.9907 174.757 85.5339 174.605 87.0508C174.458 88.5149 174.599 90.1899 175.63 91.4608C177.035 93.1885 180.045 92.966 180.66 90.84C181.433 88.1518 183.214 88.5208 185.117 88.5091C186.523 88.4974 186.687 89.083 186.423 90.3246C185.363 95.2735 180.701 97.8972 175.419 96.4331C171.506 95.3496 169.656 92.8605 169.521 88.4974C169.396 84.3938 171.364 82.2542 175.425 82.0785C176.098 82.0492 176.801 82.0141 177.439 81.815C178.587 81.4577 179.864 80.872 179.565 79.4664C179.296 78.219 177.937 78.7461 177.041 78.7168C174.804 78.6465 172.561 78.6699 170.318 78.6992C169.205 78.7109 168.467 78.5001 168.461 77.1238C168.455 75.6655 169.322 75.6362 170.37 75.6421C172.807 75.6596 175.243 75.6596 177.679 75.6421C178.886 75.6304 180.274 76.0228 180.221 73.9085C180.163 71.7709 178.698 72.3038 177.545 72.2745C175.108 72.2218 172.672 72.2042 170.236 72.2745C168.754 72.3155 168.455 71.5952 168.461 70.3067C168.461 69.0475 168.93 68.5907 170.177 68.6141C173.199 68.6668 176.221 68.6317 179.237 68.6317Z" fill="#00BDD3"/>
<path d="M118.541 84.9182C101.947 78.0033 82.8135 85.8804 75.8986 102.485C68.9837 119.079 76.8609 138.212 93.4656 145.127C110.059 152.042 129.193 144.165 136.107 127.56C143.022 110.967 135.145 91.8331 118.541 84.9182Z" fill="#FDB56E"/>
<path d="M118.537 84.917C101.944 78.0021 82.8105 85.8793 75.8956 102.484C68.9807 119.078 76.8578 138.211 93.4625 145.126C110.056 152.041 129.19 144.164 136.104 127.559C143.019 110.965 135.142 91.8319 118.537 84.917ZM91.0009 151.023C71.1514 142.754 61.7301 119.872 69.9989 100.022C78.2677 80.1728 101.149 70.7516 120.999 79.0204C140.849 87.2892 150.27 110.171 142.001 130.021C133.732 149.87 110.851 159.291 91.0009 151.023Z" fill="#DD8131"/>
<path d="M72.192 100.93C80.3041 81.4493 102.503 72.0057 122.084 79.48C121.726 79.3122 121.357 79.1555 120.999 78.9989C101.149 70.7301 78.2677 80.1514 69.9989 100.001C61.7301 119.851 71.1514 142.732 91.0009 151.001C91.3702 151.158 91.7394 151.303 92.1087 151.438C72.9976 142.799 64.0798 120.399 72.192 100.907V100.93Z" fill="#FDB56E"/>
<path d="M106.867 100.807C110.088 100.807 113.31 100.807 116.531 100.807C117.809 100.807 119.074 100.634 119.068 102.625C119.068 104.298 118.722 105.293 116.793 105.099C115.286 104.947 114.139 105.134 114.153 107.208C114.174 109.503 115.681 109.095 116.98 109.067C118.383 109.033 119.102 109.413 119.054 111.003C119.005 112.454 118.231 112.738 117.056 112.675C115.639 112.599 114.187 112.572 113.759 114.334C112.605 119.028 109.024 120.334 104.828 121.088C103.66 121.295 101.579 120.756 101.4 122.546C101.227 124.274 101.393 126.251 102.609 127.751C104.268 129.79 107.821 129.528 108.547 127.019C109.459 123.846 111.561 124.281 113.807 124.267C115.466 124.254 115.66 124.945 115.349 126.41C114.098 132.251 108.595 135.348 102.36 133.62C97.743 132.341 95.5587 129.403 95.3997 124.254C95.2522 119.41 97.5748 116.885 102.367 116.678C103.162 116.643 103.992 116.602 104.745 116.367C106.1 115.945 107.607 115.254 107.254 113.595C106.936 112.122 105.333 112.745 104.275 112.71C101.635 112.627 98.9872 112.655 96.3397 112.689C95.0264 112.703 94.1554 112.454 94.1485 110.83C94.1416 109.109 95.1646 109.074 96.402 109.081C99.2775 109.102 102.153 109.102 105.029 109.081C106.453 109.067 108.091 109.53 108.029 107.035C107.959 104.512 106.231 105.141 104.87 105.106C101.994 105.044 99.1185 105.023 96.243 105.106C94.4942 105.155 94.1416 104.305 94.1485 102.784C94.1485 101.298 94.7015 100.759 96.1739 100.786C99.7406 100.848 103.307 100.807 106.867 100.807Z" fill="white"/>
<path d="M292.363 104.156H238.07V115.235H292.363V104.156Z" fill="#FCB46E"/>
<path d="M246.43 104.156H245.883V115.235H246.43V104.156Z" fill="white"/>
<path d="M292.363 115.235H238.07V126.314H292.363V115.235Z" fill="#FCB46E"/>
<path d="M246.43 115.235H245.883V126.314H246.43V115.235Z" fill="white"/>
<path d="M292.363 126.313H238.07V137.392H292.363V126.313Z" fill="#FCB46E"/>
<path d="M246.43 126.313H245.883V137.392H246.43V126.313Z" fill="white"/>
<path d="M292.363 137.392H238.07V148.47H292.363V137.392Z" fill="#FCB46E"/>
<path d="M246.43 137.392H245.883V148.47H246.43V137.392Z" fill="white"/>
<path d="M292.363 104.156H285.727V115.235H292.363V104.156Z" fill="#DD8131"/>
<path d="M256.805 104.156H256.258V115.235H256.805V104.156Z" fill="white"/>
<path d="M267.164 104.156H266.617V115.235H267.164V104.156Z" fill="white"/>
<path d="M277.531 104.156H276.984V115.235H277.531V104.156Z" fill="white"/>
<path d="M292.363 115.235H285.727V126.314H292.363V115.235Z" fill="#DD8131"/>
<path d="M256.805 115.235H256.258V126.314H256.805V115.235Z" fill="white"/>
<path d="M267.164 115.235H266.617V126.314H267.164V115.235Z" fill="white"/>
<path d="M277.531 115.235H276.984V126.314H277.531V115.235Z" fill="white"/>
<path d="M292.363 126.313H285.727V137.392H292.363V126.313Z" fill="#DD8131"/>
<path d="M256.805 126.313H256.258V137.392H256.805V126.313Z" fill="white"/>
<path d="M267.164 126.313H266.617V137.392H267.164V126.313Z" fill="white"/>
<path d="M277.531 126.313H276.984V137.392H277.531V126.313Z" fill="white"/>
<path d="M292.363 137.392H285.727V148.47H292.363V137.392Z" fill="#DD8131"/>
<path d="M256.805 137.392H256.258V148.47H256.805V137.392Z" fill="white"/>
<path d="M267.164 137.392H266.617V148.47H267.164V137.392Z" fill="white"/>
<path d="M277.531 137.392H276.984V148.47H277.531V137.392Z" fill="white"/>
<path d="M293.98 82H239.688V93.0784H293.98V82Z" fill="#FCB46E"/>
<path d="M293.98 82H287.344V93.0784H293.98V82Z" fill="#DD8131"/>
<path d="M248.047 82H247.5V93.0784H248.047V82Z" fill="white"/>
<path d="M258.422 82H257.875V93.0784H258.422V82Z" fill="white"/>
<path d="M268.781 82H268.234V93.0784H268.781V82Z" fill="white"/>
<path d="M279.149 82H278.602V93.0784H279.149V82Z" fill="white"/>
<path d="M287.344 91.8701H239.688V92.9643H287.344V91.8701Z" fill="#9D4178"/>
<path d="M289.292 93.0791H235V104.157H289.292V93.0791Z" fill="#FCB46E"/>
<path d="M289.292 93.0791H282.656V104.157H289.292V93.0791Z" fill="#DD8131"/>
<path d="M243.367 93.0791H242.82V104.157H243.367V93.0791Z" fill="white"/>
<path d="M253.735 93.0791H253.188V104.157H253.735V93.0791Z" fill="white"/>
<path d="M264.094 93.0791H263.547V104.157H264.094V93.0791Z" fill="white"/>
<path d="M274.469 93.0791H273.922V104.157H274.469V93.0791Z" fill="white"/>
<path d="M282.656 102.947H235V104.042H282.656V102.947Z" fill="#9D4178"/>
<path d="M285.727 114.026H238.07V115.121H285.727V114.026Z" fill="#9D4178"/>
<path d="M285.727 125.104H238.07V126.199H285.727V125.104Z" fill="#9D4178"/>
<path d="M285.727 136.183H238.07V137.277H285.727V136.183Z" fill="#9D4178"/>
<path d="M285.727 147.262H238.07V148.356H285.727V147.262Z" fill="#9D4178"/>
</svg>
