<svg xmlns="http://www.w3.org/2000/svg" width="362" height="310" fill="none" viewBox="0 0 362 310"><mask id="prefix__a" width="362" height="310" x="0" y="0" maskUnits="userSpaceOnUse" style="mask-type:alpha"><rect width="362" height="310" fill="#fff" rx="16"/><rect width="361" height="309" x=".5" y=".5" stroke="#05020A" stroke-opacity=".2" rx="15.5"/></mask><g mask="url(#prefix__a)"><path fill="#E8FCFF" fill-rule="evenodd" d="M181.049 207C81.078 207 .025 125.973 0 26.002V-200.51h362V26.002c.027 99.934-80.967 180.972-180.903 180.998h-.048Z" clip-rule="evenodd"/></g><path fill="url(#prefix__b)" fill-rule="evenodd" d="M204.54 182.934c15.243-7.325 28.22-18.885 36.415-33.812 9.961-18.145 8.838-37.042 8.838-57.2v-30.05C201.133 58.038 180.917 31 180.917 31s-20.219 27.038-68.879 30.872v30.05c0 20.158-1.119 39.055 8.844 57.2 8.19 14.927 21.172 26.487 36.409 33.812 7.545 3.625 15.455 6.243 23.61 8.066 8.154-1.822 16.094-4.44 23.639-8.066Z" clip-rule="evenodd"/><path fill="#361869" fill-rule="evenodd" d="M181.398 191c8.096-1.822 15.979-4.44 23.47-8.065 15.131-7.325 28.015-18.886 36.151-33.812 9.889-18.146 8.776-37.043 8.776-57.2v-30.05C201.485 58.038 181.414 31 181.414 31l-.016 160Z" clip-rule="evenodd"/><path fill="#FDAD78" d="M181.409 136.744c10.396 0 18.823-8.427 18.823-18.823s-8.427-18.823-18.823-18.823-18.823 8.427-18.823 18.823 8.427 18.823 18.823 18.823Z"/><defs><linearGradient id="prefix__b" x1="7003.57" x2="7003.57" y1="31" y2="16031" gradientUnits="userSpaceOnUse"><stop stop-color="#8453F0"/><stop offset="1" stop-color="#361869"/></linearGradient></defs></svg>