<svg xmlns="http://www.w3.org/2000/svg" width="362" height="310" fill="none" viewBox="0 0 362 310"><mask id="prefix__a" width="362" height="310" x="0" y="0" maskUnits="userSpaceOnUse" style="mask-type:alpha"><rect width="362" height="310" fill="#fff" rx="16"/><rect width="361" height="309" x=".5" y=".5" stroke="#05020A" stroke-opacity=".2" rx="15.5"/></mask><g mask="url(#prefix__a)"><path fill="#FF6900" fill-rule="evenodd" d="M181.049 206.51C81.078 206.51.025 125.482 0 25.512v-226.513h362V25.512c.027 99.934-80.967 180.971-180.903 180.998h-.048Z" clip-rule="evenodd" opacity=".05"/></g><path fill="#DEBDC7" fill-rule="evenodd" d="M282 157.5c0 2.485-44.995 4.5-100.5 4.5S81 159.985 81 157.5s44.995-4.5 100.5-4.5 100.5 2.015 100.5 4.5Z" clip-rule="evenodd"/><path fill="#FF7572" fill-rule="evenodd" d="M88.006 157h121.988a2.008 2.008 0 0 0 1.415-.58 2.003 2.003 0 0 0 .591-1.41V136H86v19.01c0 1.099.898 1.99 2.006 1.99ZM142 136h131V52H146.54a4.54 4.54 0 0 0-4.54 4.538V136Z" clip-rule="evenodd"/><path fill="#9E4178" fill-rule="evenodd" d="M151 135h113V61H151v74Z" clip-rule="evenodd"/><path fill="#DB5E5E" fill-rule="evenodd" d="M211 157h57.962c2.23 0 4.038-1.792 4.038-4.004V136h-62v21Z" clip-rule="evenodd"/><path fill="#DB5E5E" fill-rule="evenodd" d="M271 138h6.49c2.49 0 4.51-1.91 4.51-4.267V56.267c0-2.357-2.02-4.267-4.51-4.267H271v86Z" clip-rule="evenodd"/><path stroke="#FF7572" stroke-linecap="square" stroke-linejoin="round" stroke-width="8" d="M227 49V36h-39v13"/><path fill="#9E4178" fill-rule="evenodd" d="M183 127h34v-7h-34v7Z" clip-rule="evenodd"/><path fill="#792C56" fill-rule="evenodd" d="M188 120v7-7Zm8 0v7-7Zm7 0v7-7Zm9 0v7-7Z" clip-rule="evenodd"/><path fill="#9E4178" fill-rule="evenodd" d="M182 135h34v-7h-34v7Z" clip-rule="evenodd"/><path fill="#792C56" fill-rule="evenodd" d="M188 128v7-7Zm8 0v7-7Zm7 0v7-7Zm9 0v7-7Z" clip-rule="evenodd"/><path fill="#9E4178" fill-rule="evenodd" d="M183 128h34v-1h-34v1Zm-41 0h34v-7h-34v7Z" clip-rule="evenodd"/><path fill="#792C56" fill-rule="evenodd" d="M149 121v7-7Zm7 0v7-7Zm7 0v7-7Zm7 0v7-7Z" clip-rule="evenodd"/><path fill="#9E4178" fill-rule="evenodd" d="M142 120h34v-7h-34v7Zm8-7v7-7Zm7 0v7-7Zm7 0v7-7Zm7 0v7-7Zm-29 22h34v-7h-34v7Z" clip-rule="evenodd"/><path fill="#792C56" fill-rule="evenodd" d="M149 128v7-7Zm7 0v7-7Zm7 0v7-7Zm7 0v7-7Z" clip-rule="evenodd"/><path fill="#9E4178" fill-rule="evenodd" d="M142 121h34v-1h-34v1Zm0 8h34v-1h-34v1Z" clip-rule="evenodd"/><path fill="#FAB46D" fill-rule="evenodd" d="M140 128h34v-7h-34v7Zm81-3h34v-7h-34v7Z" clip-rule="evenodd"/><path stroke="#DE8131" stroke-width=".908" d="M146 121v7m82-10v7m-75-4v7m82-10v7m-74-4v7m81-10v7m-74-4v7m81-10v7"/><path fill="#FAB46D" fill-rule="evenodd" d="M140 120h34v-7h-34v7Zm81-2h34v-7h-34v7Z" clip-rule="evenodd"/><path stroke="#DE8131" stroke-width=".908" d="M147 113v7m82-9v7m-75-5v7m81-9v7m-73-5v7m81-9v7m-74-5v7m81-9v7"/><path fill="#FAB46D" fill-rule="evenodd" d="M140 135h34v-7h-34v7Zm81-2h34v-7h-34v7Z" clip-rule="evenodd"/><path stroke="#DE8131" stroke-width=".908" d="M146 128v7m82-9v7m-75-5v7m82-9v7m-74-5v7m81-9v7m-74-5v7m81-9v7"/><path fill="#9E4178" fill-rule="evenodd" d="M140 121h34v-1h-34v1Zm81-3h34v-1h-34v1Zm-81 11h34v-1h-34v1Zm81-3h34v-1h-34v1Z" clip-rule="evenodd"/><path fill="#FAB46D" fill-rule="evenodd" d="M180 127h34v-7h-34v7Z" clip-rule="evenodd"/><path stroke="#DE8131" stroke-width=".908" d="M186 120v7m7-7v7m7-7v7m7-7v7"/><path fill="#FAB46D" fill-rule="evenodd" d="M179 135h34v-7h-34v7Z" clip-rule="evenodd"/><path stroke="#DE8131" stroke-width=".908" d="M186 128v7m7-7v7m7-7v7m7-7v7"/><path fill="#9E4178" fill-rule="evenodd" d="M180 128h34v-1h-34v1Z" clip-rule="evenodd"/><path fill="#FAB46D" fill-rule="evenodd" d="M180 112h34v-7h-34v7Z" clip-rule="evenodd"/><path stroke="#DE8131" stroke-width=".908" d="M186 105v7m7-7v7m7-7v7m7-7v7"/><path fill="#FAB46D" fill-rule="evenodd" d="M179 119h34v-7h-34v7Z" clip-rule="evenodd"/><path stroke="#DE8131" stroke-width=".908" d="M186 112v7m7-7v7m7-7v7m7-7v7"/><path fill="#9E4178" fill-rule="evenodd" d="M180 112h34v-1h-34v1Zm-95 25h138v-4H85v4Z" clip-rule="evenodd"/><path fill="#452277" fill-rule="evenodd" d="M216.148 109.259h-.055l.055-.022v.022ZM214.397 118s1.203-5.706 1.291-7.865c1.649-.12 6.312-1.433 6.312-1.433-.4-.202-5.213-1.57-6.147-1.835-.042-.45-.69-7.418-.873-7.867 0 0-1.637 6.033-1.675 7.735l.033.002-.025.017c-.782.166-5.892 1.25-6.313 1.429 0 0 4.285 1.524 6.042 1.83.198 1.312 1.152 7.562 1.355 7.987Z" clip-rule="evenodd"/><path fill="#fff" fill-rule="evenodd" d="M215.148 108.259h-.055l.055-.022v.022Zm-1.75 8.741s1.202-5.706 1.29-7.865c1.649-.12 6.312-1.433 6.312-1.433-.4-.202-5.213-1.57-6.147-1.835-.042-.45-.69-7.418-.873-7.867 0 0-1.637 6.033-1.675 7.735l.033.002-.025.017c-.782.166-5.892 1.25-6.313 1.429 0 0 4.285 1.524 6.042 1.83.198 1.312 1.153 7.562 1.356 7.987Z" clip-rule="evenodd"/></svg>